# xmcd
#
# Track frame offsets: 
#        150
#        12923
#        26883
#        37053
#        47624
#        58926
#        70007
#        83168
#        93265
#        109726
#        122954
#        135549
#        155775
#        166245
#        182381
#        197849
#        210207
#        220670
#        232178
#        242275
#
# Disc length: 3514 seconds
#
# Revision: 2
# Processed by: cddbd v1.5.2PL0 Copyright (c) Steve Scherf et al.
# Submitted via: ExactAudioCopyFreeDBPlugin 1.0
#
DISCID=100db814
DTITLE=Various Artist - Instrumental Explosion
DYEAR=2004
DGENRE=Funk
TTITLE0=Detroit City Limits - Ninety Eight Cents Plust Tax
TTITLE1=Ron Buford - More Soul
TTITLE2=The Joe Tex Band - Chocolate Cherry
TTITLE3=Gene (Bowlegs) Miller - What Time Ye Got
TTITLE4=Frank Armstrong and The Stingers - Humpin'aka Stuffed Peppers
TTITLE5=Miles Grayson - Stuck In the Mud
TTITLE6=Untouchable Machine Shop - Machine Shop pt1
TTITLE7=Pazant Brothers - Skunk Juice
TTITLE8=Aaron (Chico) Bailey and he Family Affair Band - The Point pt1
TTITLE9=Chet Ivey and His Fabulous Avengers - Bad On Bad
TTITLE10=Louis Jordan - Bullit
TTITLE11=Hank Jacobs - Elijah Rockin' With Soul
TTITLE12=The Fans - Roly Poly Mickey Lolich
TTITLE13=Afro Blues Quintet - Sunshine
TTITLE14=Pretty Purdie - Soul Drums
TTITLE15=San Francisco TKOs - Herm
TTITLE16=Fillmore Street Soul Rebellion - Put Your Weight On It pt1
TTITLE17=Lowell Fulsom - Thing
TTITLE18=Lorenzo Holden - Sundance pt1
TTITLE19=Leon Ferguson and The Groove Tones - Stokin'
EXTD=
EXTT0=
EXTT1=
EXTT2=
EXTT3=
EXTT4=
EXTT5=
EXTT6=
EXTT7=
EXTT8=
EXTT9=
EXTT10=
EXTT11=
EXTT12=
EXTT13=
EXTT14=
EXTT15=
EXTT16=
EXTT17=
EXTT18=
EXTT19=
PLAYORDER=
